<svg width="1600" height="1100" viewBox="0 0 1600 1100" fill="none" xmlns="http://www.w3.org/2000/svg">
  <defs>
    <linearGradient id="bg" x1="128" y1="96" x2="1472" y2="1004" gradientUnits="userSpaceOnUse">
      <stop stop-color="#F5F7FC"/>
      <stop offset="1" stop-color="#E7EEF9"/>
    </linearGradient>
    <linearGradient id="panel" x1="320" y1="188" x2="1212" y2="852" gradientUnits="userSpaceOnUse">
      <stop stop-color="rgba(255,255,255,0.96)" stop-opacity="0.96"/>
      <stop offset="1" stop-color="#F2F6FD"/>
    </linearGradient>
    <linearGradient id="accent" x1="368" y1="272" x2="1148" y2="760" gradientUnits="userSpaceOnUse">
      <stop stop-color="#5EA2FF"/>
      <stop offset="1" stop-color="#6A82FF"/>
    </linearGradient>
    <filter id="shadow" x="220" y="126" width="1160" height="816" filterUnits="userSpaceOnUse" color-interpolation-filters="sRGB">
      <feFlood flood-opacity="0" result="BackgroundImageFix"/>
      <feColorMatrix in="SourceAlpha" type="matrix" values="0 0 0 0 0 0 0 0 0 0 0 0 0 0 0 0 0 0 127 0" result="hardAlpha"/>
      <feOffset dy="26"/>
      <feGaussianBlur stdDeviation="38"/>
      <feColorMatrix type="matrix" values="0 0 0 0 0.067 0 0 0 0 0.106 0 0 0 0 0.173 0 0 0 0.14 0"/>
      <feBlend mode="normal" in2="BackgroundImageFix" result="effect1_dropShadow_1_1"/>
      <feBlend mode="normal" in="SourceGraphic" in2="effect1_dropShadow_1_1" result="shape"/>
    </filter>
  </defs>
  <rect width="1600" height="1100" rx="56" fill="url(#bg)"/>
  <circle cx="1366" cy="174" r="162" fill="#D9E7FF" fill-opacity="0.72"/>
  <circle cx="244" cy="912" r="176" fill="#DDEADF" fill-opacity="0.78"/>
  <g filter="url(#shadow)">
    <rect x="296" y="176" width="1008" height="664" rx="42" fill="url(#panel)"/>
    <rect x="296.75" y="176.75" width="1006.5" height="662.5" rx="41.25" stroke="#D8E2F2" stroke-width="1.5"/>
  </g>
  <rect x="348" y="236" width="904" height="84" rx="22" fill="#EEF3FB"/>
  <rect x="380" y="266" width="212" height="24" rx="12" fill="#D7E3F7"/>
  <rect x="1018" y="252" width="190" height="48" rx="16" fill="url(#accent)"/>
  <rect x="1018.75" y="252.75" width="188.5" height="46.5" rx="15.25" stroke="#89AFFF" stroke-width="1.5"/>
  <g opacity="0.9">
    <rect x="380" y="364" width="360" height="184" rx="28" fill="#FFFFFF"/>
    <rect x="380.75" y="364.75" width="358.5" height="182.5" rx="27.25" stroke="#DCE6F6" stroke-width="1.5"/>
    <rect x="420" y="408" width="132" height="22" rx="11" fill="#B8C9E7"/>
    <rect x="420" y="452" width="280" height="56" rx="18" fill="#F3F7FD"/>
    <rect x="420.75" y="452.75" width="278.5" height="54.5" rx="17.25" stroke="#D7E2F3" stroke-width="1.5"/>
    <rect x="562" y="468" width="96" height="24" rx="12" fill="#DDE7F5"/>
  </g>
  <g opacity="0.95">
    <rect x="772" y="364" width="444" height="184" rx="28" fill="#FFFFFF"/>
    <rect x="772.75" y="364.75" width="442.5" height="182.5" rx="27.25" stroke="#DCE6F6" stroke-width="1.5"/>
    <rect x="812" y="408" width="144" height="22" rx="11" fill="#B8C9E7"/>
    <rect x="812" y="452" width="162" height="56" rx="18" fill="#F3F7FD"/>
    <rect x="812.75" y="452.75" width="160.5" height="54.5" rx="17.25" stroke="#D7E2F3" stroke-width="1.5"/>
    <rect x="1010" y="452" width="166" height="56" rx="18" fill="#F3F7FD"/>
    <rect x="1010.75" y="452.75" width="164.5" height="54.5" rx="17.25" stroke="#D7E2F3" stroke-width="1.5"/>
    <path d="M992 482H998" stroke="#90A7D4" stroke-width="7" stroke-linecap="round"/>
    <path d="M1040 480V468C1040 462.477 1044.48 458 1050 458H1136C1141.52 458 1146 462.477 1146 468V480" stroke="#90A7D4" stroke-width="7" stroke-linecap="round"/>
  </g>
  <g>
    <rect x="380" y="588" width="836" height="168" rx="30" fill="#FFFFFF"/>
    <rect x="380.75" y="588.75" width="834.5" height="166.5" rx="29.25" stroke="#DCE6F6" stroke-width="1.5"/>
    <rect x="420" y="632" width="198" height="22" rx="11" fill="#B8C9E7"/>
    <rect x="420" y="682" width="150" height="24" rx="12" fill="#E5EDF9"/>
    <rect x="586" y="682" width="150" height="24" rx="12" fill="#E5EDF9"/>
    <rect x="752" y="682" width="150" height="24" rx="12" fill="#E5EDF9"/>
    <rect x="918" y="682" width="210" height="24" rx="12" fill="#DCE7F8"/>
    <rect x="1148" y="630" width="28" height="94" rx="14" fill="#EAF1FB"/>
    <rect x="1152" y="668" width="20" height="48" rx="10" fill="url(#accent)"/>
  </g>
  <g>
    <rect x="524" y="822" width="214" height="18" rx="9" fill="#AFC6EB"/>
    <rect x="868" y="822" width="208" height="18" rx="9" fill="#AFC6EB"/>
    <rect x="1038" y="884" width="214" height="52" rx="18" fill="url(#accent)"/>
    <rect x="1038.75" y="884.75" width="212.5" height="50.5" rx="17.25" stroke="#89AFFF" stroke-width="1.5"/>
  </g>
  <text x="420" y="494" fill="#24324A" font-size="48" font-family="Avenir Next, Helvetica Neue, Arial, sans-serif" font-weight="700">2560</text>
  <text x="812" y="494" fill="#24324A" font-size="48" font-family="Avenir Next, Helvetica Neue, Arial, sans-serif" font-weight="700">1600</text>
  <text x="1034" y="494" fill="#24324A" font-size="48" font-family="Avenir Next, Helvetica Neue, Arial, sans-serif" font-weight="700">80%</text>
  <text x="422" y="708" fill="#61789F" font-size="30" font-family="Avenir Next, Helvetica Neue, Arial, sans-serif" font-weight="600">LANCZOS 3</text>
  <text x="589" y="708" fill="#61789F" font-size="30" font-family="Avenir Next, Helvetica Neue, Arial, sans-serif" font-weight="600">BICUBIC</text>
  <text x="756" y="708" fill="#61789F" font-size="30" font-family="Avenir Next, Helvetica Neue, Arial, sans-serif" font-weight="600">BILINEAR</text>
  <text x="920" y="708" fill="#4A6187" font-size="30" font-family="Avenir Next, Helvetica Neue, Arial, sans-serif" font-weight="700">KEEP ASPECT RATIO</text>
  <text x="1091" y="919" fill="white" font-size="28" font-family="Avenir Next, Helvetica Neue, Arial, sans-serif" font-weight="700">EXPORT</text>
</svg>
